<svg id="logo" width="50" height="50" viewBox="0 0 50 50" fill="none" xmlns="http://www.w3.org/2000/svg">
<path d="M36.2069 17.1466V27.1034L43.1034 23.2759H50V32.7586L18.9655 50H0V17.2414L31.0345 0H50V9.48271L36.2069 17.1466Z" fill="#26323E"/>
<path d="M12.0689 26.7241V22.4138H5.17246V44.8276H12.0689V40.5173H18.9655V50H0V17.2414H18.9655V26.7241H12.0689Z" fill="#516C86"/>
<path d="M50 23.2759V32.7586L18.9655 50V40.5173L50 23.2759Z" fill="#465E74"/>
<path d="M50 23.2759L18.9656 40.5173H12.069L36.207 27.1034L43.1034 23.2759H50Z" fill="#26323E"/>
<path d="M36.207 17.1466V27.1034L12.069 40.5173V44.8275H5.17249V22.4138H12.069V26.7241H18.9656L36.207 17.1466Z" fill="#2C3945"/>
<path d="M50 0V9.48271L36.2069 17.1466L18.9655 26.7241V17.2414L31.0345 10.5345L36.2069 7.66377L40.6896 5.17246L50 0Z" fill="#465E74"/>
</svg>
